<svg width="33" height="21" xmlns="http://www.w3.org/2000/svg">
 <defs>
  <style>.cls-1 {
        fill: #040000;
        fill-rule: evenodd;
      }</style>
 </defs>
 <g>
  <title>background</title>
  <rect fill="none" id="canvas_background" height="402" width="582" y="-1" x="-1"/>
 </g>
 <g>
  <title>Layer 1</title>
  <path d="m5.138,10.467a5.268,5.268 0 1 0 5.277,5.268a5.318,5.318 0 0 0 -1.554,-3.747a5.186,5.186 0 0 0 -3.723,-1.521l0,0zm0,8.194a2.911,2.911 0 1 1 2.876,-2.911a2.926,2.926 0 0 1 -0.843,2.058a2.856,2.856 0 0 1 -2.033,0.853l0,0zm26.558,-17.55l-17.442,0a1.181,1.181 0 0 0 0,2.343l17.446,0a1.159,1.159 0 0 0 1.116,-0.545a1.189,1.189 0 0 0 0,-1.253a1.159,1.159 0 0 0 -1.116,-0.545l0,0l-0.004,0zm0,11.643l-17.442,0a1.148,1.148 0 0 0 -1,0.582a1.18,1.18 0 0 0 0,1.165a1.148,1.148 0 0 0 1,0.582l17.446,0a1.15,1.15 0 0 0 1,-0.582a1.18,1.18 0 0 0 0,-1.165a1.15,1.15 0 0 0 -1,-0.582l0,0l-0.004,0zm0,-5.848l-17.442,0a1.148,1.148 0 0 0 -1,0.582a1.178,1.178 0 0 0 0,1.164a1.148,1.148 0 0 0 1,0.582l17.446,0a1.15,1.15 0 0 0 1,-0.582a1.178,1.178 0 0 0 0,-1.164a1.15,1.15 0 0 0 -1,-0.582l0,0l-0.004,0zm0,10.811l-17.442,0a1.181,1.181 0 0 0 0,2.343l17.446,0a1.159,1.159 0 0 0 1.116,-0.545a1.189,1.189 0 0 0 0,-1.253a1.161,1.161 0 0 0 -1.116,-0.545l0,0l-0.004,0zm-22.719,-17.465l-4.314,5.443l-2.559,-2.91a1.141,1.141 0 0 0 -1.625,-0.1a1.176,1.176 0 0 0 -0.1,1.644l2.56,2.911a2.3,2.3 0 0 0 3.523,0l4.313,-5.429a1.193,1.193 0 0 0 -1.883,-1.44l0.085,-0.119z" class="cls-1" id="b"/>
 </g>
</svg>