<svg xmlns="http://www.w3.org/2000/svg" width="33" height="33" viewBox="0 0 33 33">
  <defs>
    <style>
      .cls-1 {
        fill: #040000;
        fill-rule: evenodd;
      }
    </style>
  </defs>
  <path id="a" class="cls-1" d="M368.213,79.309a25.924,25.924,0,0,0-4.1-9.337,3.087,3.087,0,0,1-3.861-.862,25.869,25.869,0,0,0-5.222,4.451,3.082,3.082,0,0,1,.5,2.9,25.682,25.682,0,0,0,10.842,4.348,3.108,3.108,0,0,1,1.842-1.5h0Zm-2.061,3.915a2.971,2.971,0,0,1-.094-0.371,27.742,27.742,0,0,1-11.808-4.769,3.079,3.079,0,0,1-2.646.314,25.652,25.652,0,0,0-1.98,4.641,14.48,14.48,0,0,0,8.406,7.192,27.982,27.982,0,0,1,8.12-7.006h0Zm5.792-2.166a25.739,25.739,0,0,0,4.465-.675,14.463,14.463,0,0,0-4.985-15.234,25.687,25.687,0,0,0-5.723,1.293,3.106,3.106,0,0,1-.149,1.988,27.976,27.976,0,0,1,4.795,11.014,3.1,3.1,0,0,1,1.6,1.615v0Zm-3.141,4.3a3.072,3.072,0,0,1-1.382-.479,25.894,25.894,0,0,0-7.163,5.889,14.547,14.547,0,0,0,8.077-1.054,25.726,25.726,0,0,0,.468-4.356h0Zm3.273-2.236a3.1,3.1,0,0,1-1.205,1.691,27.382,27.382,0,0,1-.239,3.62,14.5,14.5,0,0,0,4.919-5.75,27.886,27.886,0,0,1-3.475.439h0Zm-18.81-10.671a28,28,0,0,1,6.348-5.371,3.082,3.082,0,0,1,.516-1.574,25.551,25.551,0,0,0-3.114-2.362,14.491,14.491,0,0,0-7.617,7.283,25.646,25.646,0,0,0,1.84,2.265,3.079,3.079,0,0,1,2.027-.241h0Zm-3.473,1.716q-0.641-.7-1.234-1.435a14.557,14.557,0,0,0-.049,7.355,27.811,27.811,0,0,1,1.458-2.984,3.078,3.078,0,0,1-.175-2.935h0Zm14.695-9.473a27.657,27.657,0,0,1,4.255-1.213,14.5,14.5,0,0,0-9.213-1.11,27.89,27.89,0,0,1,2.3,1.885,3.094,3.094,0,0,1,2.661.437h0ZM362.5,93A16.5,16.5,0,1,1,379,76.5,16.5,16.5,0,0,1,362.5,93h0Zm0,0" transform="translate(-346 -60)"/>
</svg>
