<svg xmlns="http://www.w3.org/2000/svg" width="34.031" height="33" viewBox="0 0 34.031 33">
  <defs>
    <style>
      .cls-1 {
        fill: #040000;
        fill-rule: evenodd;
      }
    </style>
  </defs>
  <path id="c" class="cls-1" d="M364.483,127.5a1.128,1.128,0,0,1-.135.536l-4.088,6.728a1.087,1.087,0,0,1-.965.536h-8.153a1.088,1.088,0,0,1-.965-0.536l-4.065-6.728a1.031,1.031,0,0,1,0-1.071l4.065-6.729a1.089,1.089,0,0,1,.966-0.535H359.3a1.086,1.086,0,0,1,.965.535l4.088,6.729a1.127,1.127,0,0,1,.135.535h0Zm-5.818,5.657,3.415-5.657-3.414-5.657h-6.872l-3.436,5.657,3.436,5.657h6.871ZM380,136.071a0.887,0.887,0,0,1-.157.536l-4.065,6.857a1.181,1.181,0,0,1-.988.536h-8.13a1.179,1.179,0,0,1-.988-0.536l-4.065-6.75a1.026,1.026,0,0,1,0-1.071l4.065-6.729a1.18,1.18,0,0,1,.988-0.535h8.13a1.18,1.18,0,0,1,.988.535l4.065,6.729a0.991,0.991,0,0,1,.157.428h0Zm-5.839,5.786,3.414-5.786-3.414-5.55h-6.85l-3.436,5.55,3.436,5.786h6.85ZM380,118.821a0.975,0.975,0,0,1-.157.536l-4.065,6.728a1.179,1.179,0,0,1-.988.536h-8.13a1.179,1.179,0,0,1-.988-0.536l-4.065-6.728a1.026,1.026,0,0,1,0-1.071l4.065-6.751a1.18,1.18,0,0,1,.988-0.535h8.13a1.181,1.181,0,0,1,.988.536l4.065,6.75a0.887,0.887,0,0,1,.157.536h0Zm-5.839,5.657,3.414-5.657-3.414-5.679h-6.85l-3.436,5.679,3.436,5.657h6.85Zm0,0" transform="translate(-345.969 -111)"/>
</svg>
